<?xml version="1.0" standalone="no"?>
<!DOCTYPE svg PUBLIC "-//W3C//DTD SVG 20010904//EN"
 "http://www.w3.org/TR/2001/REC-SVG-20010904/DTD/svg10.dtd">
<svg version="1.0" xmlns="http://www.w3.org/2000/svg"
 width="640.000000pt" height="640.000000pt" viewBox="0 0 640.000000 640.000000"
 preserveAspectRatio="xMidYMid meet">
<metadata>
Created by potrace 1.14, written by Peter Selinger 2001-2017
</metadata>
<g transform="translate(0.000000,640.000000) scale(0.100000,-0.100000)"
fill="#000000" stroke="none">
<path d="M0 3200 l0 -3200 3200 0 3200 0 0 3200 0 3200 -3200 0 -3200 0 0
-3200z m3715 2365 c436 -47 784 -130 1130 -267 125 -50 310 -144 395 -201 l65
-43 3 -795 c3 -810 -6 -1159 -33 -1369 -14 -103 -59 -328 -68 -336 -3 -3 -176
55 -186 63 -2 1 6 52 18 113 55 276 54 256 58 1271 l4 947 -128 65 c-366 186
-791 301 -1303 353 -202 21 -704 24 -895 6 -549 -52 -977 -165 -1358 -359
l-128 -65 4 -951 c4 -1022 3 -1014 58 -1275 12 -56 20 -104 18 -106 -12 -8
-183 -65 -187 -61 -7 7 -31 114 -52 235 -43 253 -45 304 -45 1304 l0 960 65
44 c81 55 307 167 431 215 388 149 819 237 1319 271 135 9 673 -3 815 -19z
m-915 -820 l0 -75 75 0 74 0 3 73 3 72 75 0 74 0 0 -72 0 -73 78 0 78 0 0 75
0 76 73 -3 72 -3 3 -72 3 -73 74 0 75 0 0 75 0 76 73 -3 72 -3 5 -74 5 -74 73
2 72 2 0 -80 0 -81 -75 0 -75 0 0 -75 0 -75 -75 0 -75 0 0 75 0 75 -75 0 -75
0 0 -75 0 -75 -75 0 -75 0 0 75 0 75 -80 0 -80 0 0 75 0 75 -75 0 -75 0 0 -75
0 -75 75 0 c85 0 88 -3 82 -95 l-4 -50 -76 -3 -77 -3 0 76 0 75 -75 0 -75 0 0
-75 0 -75 -75 0 -75 0 0 75 0 75 -75 0 -75 0 0 80 0 80 75 0 75 0 0 68 c0 38
3 72 7 75 3 4 37 7 75 7 l68 0 0 -75z m-594 -1020 c133 -402 125 -381 134
-364 4 8 54 164 111 347 l103 333 131 -3 130 -3 3 -447 2 -448 -100 0 -100 0
-2 317 -3 317 -69 -239 c-38 -132 -80 -275 -93 -317 l-24 -78 -102 0 -103 0
-89 311 c-49 170 -92 312 -97 315 -4 3 -8 -137 -8 -310 l0 -316 -95 0 -95 0 0
450 0 451 132 -3 132 -3 102 -310z m994 -135 l0 -450 -95 0 -95 0 0 450 0 450
95 0 95 0 0 -450z m570 144 c96 -168 180 -314 187 -323 10 -13 12 51 13 307
l0 323 88 -3 87 -3 3 -447 2 -448 -112 0 -113 0 -175 311 -175 311 -3 -311 -2
-311 -90 0 -90 0 0 450 0 450 103 0 102 0 175 -306z m760 -144 l0 -450 -95 0
-95 0 0 450 0 450 95 0 95 0 0 -450z m-1055 -780 c654 -36 1267 -169 1855
-403 204 -81 403 -170 407 -183 2 -5 -48 -40 -110 -77 -63 -38 -151 -95 -198
-127 l-84 -57 2 -79 c2 -44 7 -160 11 -259 5 -99 8 -181 7 -183 -1 -1 -53 21
-116 49 -1051 475 -2199 575 -3308 288 -241 -63 -561 -176 -799 -282 l-122
-55 0 32 c0 40 26 238 49 376 16 96 16 106 2 117 -33 25 -281 171 -355 209
-42 21 -75 43 -73 48 4 13 203 102 407 183 766 305 1619 447 2425 403z m-1340
-1192 c94 -57 299 -158 463 -230 191 -83 411 -192 506 -252 48 -31 90 -56 93
-56 3 0 48 27 101 61 104 64 255 141 472 237 288 128 442 207 563 288 l49 32
91 -25 c51 -14 102 -28 115 -30 12 -3 25 -9 27 -14 3 -4 -27 -33 -67 -63 -155
-116 -353 -222 -719 -386 -322 -144 -447 -215 -578 -324 l-55 -45 -40 34
c-129 110 -279 194 -620 346 -110 50 -270 126 -354 170 -204 105 -424 252
-405 270 4 4 58 21 118 37 103 28 112 29 135 14 14 -9 61 -38 105 -64z"/>
<path d="M2650 4585 l0 -75 75 0 75 0 0 75 0 75 -75 0 -75 0 0 -75z"/>
<path d="M3260 4585 l0 -75 75 0 75 0 0 75 0 75 -75 0 -75 0 0 -75z"/>
<path d="M3560 4585 l0 -75 75 0 75 0 0 75 0 75 -75 0 -75 0 0 -75z"/>
<path d="M3019 2553 c0 -5 0 -66 1 -137 1 -146 -7 -166 -66 -166 -49 0 -64 28
-64 120 0 41 -3 99 -6 128 -7 52 -7 52 -42 52 l-35 0 5 -140 c4 -120 7 -144
24 -168 31 -42 81 -64 132 -58 113 15 136 60 126 248 l-7 128 -33 0 c-19 0
-34 -3 -35 -7z"/>
<path d="M3200 2497 c0 -35 -3 -119 -7 -185 l-6 -122 41 0 42 0 0 48 c0 38 6
55 28 82 l29 34 44 -82 44 -82 43 0 c23 0 42 2 42 4 0 2 -28 52 -61 110 l-61
106 63 67 63 68 -44 3 c-45 4 -46 3 -118 -75 l-73 -78 6 83 6 82 -40 0 -41 0
0 -63z"/>
<path d="M3594 2535 c-1 -5 -8 -75 -14 -155 -6 -80 -12 -156 -13 -170 -2 -22
2 -25 34 -28 l37 -3 7 66 7 66 36 -7 c20 -4 37 -7 37 -8 0 0 15 -31 33 -68 31
-67 32 -68 72 -68 22 0 40 3 40 8 -1 4 -16 36 -34 70 l-32 64 33 33 c28 28 33
40 33 80 0 40 -5 52 -34 81 -19 19 -42 34 -52 35 -11 0 -57 4 -103 8 -54 4
-84 3 -87 -4z m156 -71 c39 -8 58 -41 41 -73 -10 -18 -21 -21 -71 -21 l-60 0
0 50 c0 48 1 50 29 50 16 0 43 -3 61 -6z"/>
<path d="M2331 2510 c-35 -5 -66 -11 -69 -14 -3 -3 3 -85 14 -182 l18 -176 75
7 c98 8 147 21 171 45 38 38 38 102 0 140 -16 16 -18 25 -10 40 18 33 12 87
-13 116 -27 31 -81 38 -186 24z m127 -72 c16 -16 15 -43 0 -56 -7 -5 -35 -12
-63 -14 l-50 -3 -3 34 c-2 20 2 37 10 42 20 13 92 11 106 -3z m20 -140 c16
-16 15 -53 -1 -66 -7 -6 -36 -14 -65 -18 l-52 -7 0 37 c0 20 -1 39 -2 43 -7
19 103 28 120 11z"/>
<path d="M3992 2324 c-52 -91 -92 -167 -90 -169 1 -2 19 -5 38 -7 32 -3 37 1
55 35 19 36 22 37 60 32 93 -14 92 -13 101 -58 8 -38 12 -42 47 -48 20 -3 37
-5 37 -4 0 11 -82 370 -86 376 -3 5 -20 9 -37 9 -31 -1 -35 -7 -125 -166z
m133 -13 l7 -43 -33 7 c-19 4 -36 9 -38 11 -3 3 5 26 18 51 26 53 34 48 46
-26z"/>
<path d="M2088 2473 c-10 -2 -18 -6 -18 -7 0 -1 9 -52 20 -112 11 -60 20 -121
20 -135 0 -34 -29 -59 -68 -59 -43 0 -57 25 -76 135 -28 156 -24 145 -60 145
-18 0 -35 -2 -38 -5 -8 -8 40 -253 57 -285 32 -61 116 -77 195 -37 69 34 76
68 48 232 -24 138 -27 143 -80 128z"/>
<path d="M4360 2442 c0 -6 -16 -86 -35 -178 -19 -92 -34 -169 -32 -170 1 -1
18 -4 37 -8 l35 -6 37 177 c20 98 36 179 35 180 -1 0 -19 4 -39 8 -24 5 -38 3
-38 -3z"/>
<path d="M4545 2398 c-30 -91 -86 -331 -79 -337 5 -5 21 -11 36 -15 25 -6 28
-3 38 36 7 24 20 72 30 108 l17 65 21 -70 c11 -38 28 -95 37 -126 14 -51 19
-57 47 -63 18 -3 35 -3 38 1 9 11 92 334 87 339 -2 3 -18 9 -35 13 l-30 9 -21
-76 c-11 -43 -23 -90 -27 -106 -9 -37 -15 -25 -49 99 -16 55 -33 105 -39 111
-18 19 -66 26 -71 12z"/>
<path d="M1561 2361 c-12 -7 -7 -38 29 -180 30 -120 47 -171 56 -171 8 0 62
12 120 26 l105 27 -7 31 c-3 17 -8 32 -9 34 -2 2 -38 -6 -81 -17 -43 -11 -81
-17 -85 -13 -3 4 -16 52 -29 107 -38 164 -38 165 -63 165 -12 0 -28 -4 -36 -9z"/>
<path d="M1295 2288 c-105 -37 -133 -156 -64 -277 51 -88 142 -113 227 -61 41
25 63 60 69 111 5 37 4 42 -11 36 -10 -4 -29 -10 -42 -13 -16 -4 -24 -13 -24
-29 0 -47 -72 -79 -116 -50 -32 21 -63 88 -64 138 0 27 7 45 25 62 27 28 76
33 95 10 15 -18 29 -19 65 -5 22 8 24 13 15 30 -27 51 -106 72 -175 48z"/>
<path d="M4931 2279 c-59 -158 -110 -314 -104 -319 8 -7 195 -76 222 -82 7 -2
19 11 27 28 l13 31 -67 23 c-123 42 -112 34 -100 74 6 20 16 36 23 36 6 0 39
-10 74 -21 66 -23 79 -20 83 20 3 21 -5 26 -62 46 -70 23 -84 43 -57 79 14 19
16 19 86 -7 90 -34 97 -34 109 2 l10 29 -111 37 c-62 21 -118 40 -124 43 -7 2
-17 -7 -22 -19z"/>
</g>
</svg>
